<svg fill="#000000" version="1.1" class="chicken-foot-print" xmlns="http://www.w3.org/2000/svg" xmlns:xlink="http://www.w3.org/1999/xlink" 
	 width="30px" height="30px" viewBox="0 0 88.131 88.132"
	 xml:space="preserve">
<g>
	<g>
		<path d="M85.959,32.751c-1.537,0.065-5.084,4.507-8.422,7.494c-2.253,2.015-5.554,4.703-8.494,7.281
			c-0.326-4.486-1.115-9.122-1.113-13.201c0.007-6.543,0.702-15.889-0.895-16.942c-0.241-1.593-0.794-3.106-0.794-3.106
			s-0.559,1.377-0.812,3.113c-1.277,1.453-0.89,8.809-1.2,14.55c-0.221,4.193-0.613,10.168-0.798,15.467
			c-2.396-2.021-4.962-3.93-6.958-5.925c-3.595-3.606-8.424-9.084-9.924-8.746c-1.021-0.738-2.172-1.251-2.172-1.251
			s0.439,1.079,1.25,2.179c0.062,1.538,4.988,5.23,7.972,8.57c2.918,3.257,6.762,8.582,10.117,11.939
			c0.234,0.233,0.518,0.379,0.818,0.47c0.479,0.326,1.065,0.522,1.704,0.522c0.596,0,1.106-0.21,1.558-0.499
			c0.36-0.08,0.712-0.219,1-0.477c3.392-3.068,6.099-7.467,9.179-10.542c3.608-3.598,9.247-8.476,8.907-9.976
			c0.737-1.018,1.248-2.172,1.248-2.172S87.059,31.94,85.959,32.751z"/>
		<path d="M31.662,60.168c-1.995,1.996-4.558,3.905-6.956,5.926c-0.185-5.299-0.577-11.272-0.798-15.466
			c-0.309-5.743,0.079-13.098-1.201-14.551c-0.25-1.736-0.811-3.113-0.811-3.113s-0.551,1.513-0.794,3.106
			c-1.596,1.053-0.902,10.397-0.894,16.941c0.002,4.079-0.788,8.712-1.112,13.201c-2.941-2.578-6.244-5.265-8.496-7.281
			c-3.339-2.984-6.886-7.428-8.423-7.493C1.078,50.628,0,50.188,0,50.188s0.512,1.153,1.25,2.171
			c-0.339,1.499,5.3,6.378,8.906,9.978c3.079,3.077,5.788,7.471,9.18,10.541c0.288,0.26,0.635,0.395,0.999,0.477
			c0.452,0.29,0.963,0.5,1.558,0.5c0.635,0,1.222-0.196,1.703-0.525c0.301-0.089,0.584-0.234,0.82-0.467
			c3.359-3.36,7.199-8.685,10.117-11.939c2.982-3.34,7.909-7.032,7.972-8.57c0.813-1.1,1.25-2.178,1.25-2.178
			s-1.152,0.513-2.173,1.252C40.087,51.085,35.259,56.563,31.662,60.168z"/>
	</g>
</g>
</svg>